PathFileType	4	(X/Y/Z)	C:/Users/opensim2020/Desktop/walking_exp_matlab/subject06_walking22_straight_03.trc	
DataRate	CameraRate	NumFrames	NumMarkers	Units	OrigDataRate	OrigDataStartFrame	OrigNumFrames	
100.00	100.00	4	44	mm	100.00	1732	77	
Frame#	Time	LFHD			RFHD			LBHD			RBHD			C7			T10			CLAV			STRN			RBAK			LSHO			LUPA			LELB			LFRM			LWRA			LWRB			LFIN			RSHO			RUPA			RELB			RFRM			RWRA			RWRB			RFIN			LASI			RASI			LPSI			RPSI			LTHI			LKNE			LTIB			LANK			LHEE			LTOE			RTHI			RKNE			RTIB			RANK			RHEE			RTOE			*39			*40			*41			*42			*43			
		X1	Y1	Z1	X2	Y2	Z2	X3	Y3	Z3	X4	Y4	Z4	X5	Y5	Z5	X6	Y6	Z6	X7	Y7	Z7	X8	Y8	Z8	X9	Y9	Z9	X10	Y10	Z10	X11	Y11	Z11	X12	Y12	Z12	X13	Y13	Z13	X14	Y14	Z14	X15	Y15	Z15	X16	Y16	Z16	X17	Y17	Z17	X18	Y18	Z18	X19	Y19	Z19	X20	Y20	Z20	X21	Y21	Z21	X22	Y22	Z22	X23	Y23	Z23	X24	Y24	Z24	X25	Y25	Z25	X26	Y26	Z26	X27	Y27	Z27	X28	Y28	Z28	X29	Y29	Z29	X30	Y30	Z30	X31	Y31	Z31	X32	Y32	Z32	X33	Y33	Z33	X34	Y34	Z34	X35	Y35	Z35	X36	Y36	Z36	X37	Y37	Z37	X38	Y38	Z38	X39	Y39	Z39	X40	Y40	Z40	X41	Y41	Z41	X42	Y42	Z42	X43	Y43	Z43	X44	Y44	Z44	

49	0.480	1361.56885	167.25826	1636.25635	1494.03943	173.03296	1631.68103	1370.98181	30.10638	1593.87476	1500.47083	37.27212	1594.12085	1422.98010	20.64964	1437.80896	1433.01123	-33.65684	1111.30591	1431.30981	124.18120	1353.01794	1423.30847	153.87440	1177.36108	1491.78491	-70.64635	1273.49512	1266.69873	82.03114	1390.43518	1184.32971	95.78627	1193.55127	1164.62598	107.41757	1082.34314	1154.60986	195.68036	960.28107	1213.96021	297.37167	894.48456	1171.44568	254.32928	857.69519	1179.63074	331.45834	812.91235	1587.54028	65.96749	1389.51709	1672.03137	-34.83900	1218.52820	1691.98645	-65.78477	1101.16846	1718.20984	-96.64125	986.08533	1704.56030	-91.42148	831.97986	1735.51660	-144.86255	856.20801	1745.45935	-138.13765	771.93109	1325.29553	138.33154	941.83405	1546.65442	143.92168	954.43304	1358.93860	-17.64773	975.94177	1526.67529	-7.25136	976.98242	1281.59058	35.00587	632.69525	1309.68408	4.24712	471.19998	1324.59436	-100.38756	234.57091	1371.09021	-158.44098	73.80023	1415.45630	-203.28880	66.01964	1372.90991	-20.24147	39.68256	1622.28674	174.68228	637.63049	1598.81763	233.86760	526.72632	1597.73938	237.43384	264.37241	1559.13599	265.16492	79.08609	1507.23743	239.22945	50.89159	1585.08289	416.23434	62.26530	1423.72058	73.57691	1685.92639												 
50	0.490	1362.38538	182.85223	1632.98279	1494.87634	188.74487	1628.31641	1371.68567	45.79750	1590.61938	1501.14685	53.01236	1590.71277	1423.49109	36.38163	1434.44360	1433.58533	-18.04155	1107.82117	1431.82715	139.82889	1349.57275	1423.38867	169.36310	1173.83240	1491.80835	-55.03665	1270.12000	1267.12988	97.73768	1387.42102	1184.46301	113.50452	1190.89319	1164.59412	127.04744	1079.89771	1155.75598	218.87239	961.34766	1216.05798	322.84610	900.31165	1173.66138	281.72650	861.40149	1182.34961	360.67661	820.19562	1588.04431	81.42082	1385.98694	1671.68066	-21.81450	1216.34070	1691.81189	-54.44654	1099.47864	1718.21790	-87.73129	985.11346	1705.24939	-85.71829	830.73096	1735.61121	-138.94673	856.37115	1746.04382	-134.25893	771.95172	1324.94678	152.98048	938.48761	1546.50269	160.48874	950.80811	1359.72620	-2.83728	972.51044	1527.27942	8.76682	973.48029	1281.60327	46.04219	630.36536	1309.51343	12.42936	469.28775	1325.10913	-96.69784	234.52551	1371.40723	-157.91032	74.89998	1416.09119	-202.58698	67.71588	1373.09851	-20.16750	39.60697	1622.45435	189.63034	633.25116	1598.53418	249.61790	523.08661	1598.34277	266.66245	261.94083	1560.65259	305.73102	78.45563	1508.69788	281.40149	49.22952	1586.66821	457.55682	68.47887	1424.50562	89.29568	1682.59924												 
51	0.500	1363.17310	198.76836	1629.71582	1495.64758	204.50517	1624.86194	1372.38098	61.65453	1587.26746	1501.88330	68.81194	1587.32129	1424.09204	52.17582	1431.06506	1434.22498	-2.49887	1104.32263	1432.36035	155.57466	1346.01270	1423.52161	185.03471	1170.36475	1491.87036	-39.32146	1266.60120	1267.68884	113.61087	1384.38000	1184.78357	131.14076	1188.20764	1164.77588	146.11906	1077.61316	1156.81775	242.04836	962.33209	1218.13489	347.75446	906.03381	1175.69739	308.70834	865.17792	1185.02698	389.27960	827.57074	1588.57617	97.00037	1382.41956	1671.49023	-8.50099	1214.10229	1691.80981	-42.73775	1097.74963	1718.37219	-78.33340	984.11334	1706.75769	-78.30100	830.19220	1735.85889	-132.31996	856.46136	1746.59058	-129.64194	772.01227	1324.24609	167.45973	935.01544	1546.27869	177.22974	947.09961	1360.60620	12.14036	969.12018	1528.32214	25.58749	969.90765	1281.50610	57.27883	628.10187	1309.27979	21.00471	467.43069	1324.91431	-92.90135	234.79350	1371.90186	-157.23257	76.33049	1416.51050	-202.01157	69.93554	1373.22583	-20.04349	39.49421	1622.51135	204.27846	628.83630	1598.25903	265.29834	519.19769	1598.86157	295.25479	259.93161	1561.83667	344.68045	78.86480	1510.19470	322.41907	47.86049	1588.42346	496.84793	77.62005	1425.31641	105.06512	1679.21069												 
52	0.510	1364.03088	214.54465	1626.50745	1496.57178	220.26230	1621.59570	1373.20508	77.39381	1583.96350	1502.69446	84.51819	1583.76575	1424.74316	68.12105	1427.70154	1434.85864	13.28670	1100.81006	1433.14941	171.45515	1342.53418	1423.80420	200.82158	1166.86621	1492.01025	-23.67261	1263.10754	1268.40747	129.68077	1381.32422	1185.26990	148.80643	1185.51550	1165.16406	165.47073	1075.06616	1157.78149	264.85489	963.45258	1220.04736	372.02820	911.56201	1177.71240	334.98993	869.01630	1187.69202	417.23923	835.13519	1589.32642	112.76114	1378.90857	1671.40198	5.12605	1211.87915	1691.95288	-30.68689	1095.94592	1718.68835	-68.34448	983.04883	1707.14575	-72.21690	828.31378	1736.21106	-124.91503	856.58160	1747.24255	-124.18102	772.01660	1323.66785	182.46698	931.81622	1545.98364	194.30560	943.48523	1361.52539	27.33276	965.76465	1529.26074	42.35610	966.40436	1281.42456	68.53632	626.08380	1308.97070	29.95325	465.77780	1325.09326	-88.80406	235.30220	1372.37598	-156.36919	78.15363	1417.05042	-201.05508	72.60953	1373.40820	-19.97377	39.36490	1622.82275	219.14352	624.43793	1598.40442	280.98071	515.14050	1599.15833	322.44333	258.38309	1562.77527	382.00626	80.22306	1511.28113	361.89954	47.45684	1590.08423	533.83160	87.98845	1426.22974	120.76157	1675.87622												 
